<?xml version="1.0" encoding="UTF-8" standalone="no"?>
<!DOCTYPE svg PUBLIC "-//W3C//DTD SVG 1.1//EN" "http://www.w3.org/Graphics/SVG/1.1/DTD/svg11.dtd">
<svg xmlns="http://www.w3.org/2000/svg" version="1.0" width="241px" height="40px" viewBox="0 0 4260.000000 708.000000" preserveAspectRatio="xMidYMid meet">
   <g transform="translate(0.000000,708.000000) scale(0.100000,-0.100000)" fill="#FFFFFF" stroke="none">
      <path d="M10812 7064 c-18 -9 -43 -31 -55 -48 -21 -30 -22 -41 -25 -283 -3 -220 -1 -258 14 -288 24 -52 67 -78 135 -83 70 -5 120 16 155 67 24 35 24 37 24 284 0 276 -4 297 -63 339 -41 30 -138 36 -185 12z"/>
      <path d="M82 5683 c-18 -9 -43 -30 -55 -47 l-22 -31 -3 -1095 c-3 -1205 -3 -1213 58 -1455 180 -709 729 -1289 1427 -1504 338 -105 735 -121 1093 -46 274 57 568 191 808 369 382 283 672 712 787 1163 62 244 58 164 62 1406 3 1042 2 1141 -13 1173 -24 51 -67 77 -135 82 -68 5 -119 -16 -152 -62 l-22 -31 -6 -1130 -5 -1130 -27 -121 c-153 -691 -652 -1212 -1328 -1384 -259 -66 -599 -66 -858 0 -201 51 -398 138 -562 249 -402 269 -668 669 -771 1157 l-23 109 -5 1125 -5 1125 -22 31 c-13 17 -38 39 -57 48 -43 20 -121 20 -164 -1z"/>
      <path d="M7155 5689 c-476 -66 -883 -262 -1213 -583 -341 -331 -553 -744 -623 -1211 -18 -122 -19 -194 -19 -1223 0 -989 2 -1097 16 -1128 24 -51 68 -77 135 -82 68 -5 119 16 152 62 l22 31 5 1125 5 1125 23 109 c104 489 368 886 771 1157 593 399 1389 399 1982 0 398 -267 660 -657 766 -1135 l27 -121 5 -1130 6 -1130 22 -31 c29 -41 79 -64 138 -64 62 0 111 24 141 70 l25 37 -4 1144 c-4 1248 0 1168 -62 1412 -176 693 -732 1273 -1422 1486 -216 67 -388 91 -643 90 -107 -1 -222 -5 -255 -10z"/>
      <path d="M10812 5684 c-18 -9 -43 -31 -55 -48 l-22 -31 -3 -2013 c-2 -1844 -1 -2017 14 -2048 24 -51 68 -77 135 -82 70 -5 120 16 155 67 l24 36 0 2008 c0 2224 5 2051 -63 2099 -41 30 -138 36 -185 12z"/>
      <path d="M13985 5689 c-208 -29 -396 -80 -571 -155 -598 -255 -1055 -784 -1219 -1410 -88 -334 -88 -754 0 -1088 164 -625 621 -1155 1217 -1409 274 -118 521 -167 838 -167 457 0 836 118 1226 381 65 44 72 52 88 102 22 72 14 118 -31 168 -62 69 -149 74 -227 14 -186 -142 -445 -257 -705 -313 -116 -24 -144 -26 -356 -26 -212 0 -240 2 -356 26 -359 77 -666 243 -917 496 -255 257 -420 568 -494 932 -20 101 -23 143 -23 340 1 205 3 236 28 351 93 439 319 797 677 1076 201 156 457 272 729 331 116 24 144 26 356 26 212 0 240 -2 356 -26 160 -35 305 -85 443 -155 105 -52 251 -142 308 -189 34 -28 88 -38 137 -24 49 13 106 74 115 123 8 42 -7 109 -29 127 -8 7 -15 18 -15 25 0 16 -133 110 -260 183 -236 135 -478 216 -765 257 -109 16 -448 18 -550 4z"/>
      <path d="M18455 5689 c-471 -66 -887 -264 -1195 -569 -390 -388 -610 -857 -651 -1392 -30 -395 66 -832 258 -1172 351 -622 910 -1000 1605 -1086 132 -17 483 -8 608 15 134 24 267 60 379 101 195 73 463 222 534 298 68 74 72 159 10 227 -58 64 -151 74 -211 24 -51 -42 -169 -114 -278 -169 -138 -69 -284 -119 -443 -154 -116 -24 -144 -26 -356 -26 -212 0 -240 2 -356 26 -441 95 -821 336 -1082 686 -167 224 -272 462 -329 742 -20 99 -23 145 -23 335 0 190 3 236 23 335 57 280 162 518 329 742 261 350 641 591 1082 686 116 24 144 26 356 26 212 0 240 -2 356 -26 272 -59 531 -176 729 -332 292 -228 499 -511 612 -836 l33 -95 5 -1225 5 -1225 22 -31 c29 -41 79 -64 138 -64 62 0 111 25 142 71 l25 38 -5 1198 -4 1198 -26 135 c-72 386 -376 832 -759 1116 -294 217 -611 346 -983 399 -109 16 -448 18 -550 4z"/>
      <path d="M30175 5689 c-635 -88 -1164 -418 -1511 -940 -126 -191 -224 -412 -257 -579 -20 -103 -20 -138 -24 -2077 -4 -1829 -3 -1975 13 -2008 24 -52 67 -78 135 -83 70 -5 120 16 155 67 l24 36 0 1907 c0 1651 2 1923 15 2025 20 154 36 206 101 337 247 496 701 845 1253 964 116 24 144 26 356 26 212 0 240 -2 356 -26 441 -95 821 -336 1082 -686 167 -224 272 -462 329 -742 20 -99 23 -145 23 -335 0 -190 -3 -236 -23 -335 -57 -280 -162 -518 -329 -742 -261 -350 -641 -591 -1082 -686 -116 -24 -144 -26 -356 -26 -212 0 -240 2 -356 26 -262 57 -541 181 -696 311 -75 62 -163 58 -226 -12 -62 -68 -58 -153 10 -227 71 -76 339 -225 534 -298 228 -84 410 -117 682 -123 277 -7 460 16 690 88 691 213 1239 786 1422 1485 88 334 88 754 0 1088 -164 625 -621 1155 -1217 1409 -181 78 -343 122 -553 152 -109 16 -448 18 -550 4z"/>
      <path d="M33502 5683 c-18 -9 -43 -30 -55 -47 l-22 -31 -3 -1095 c-3 -1205 -3 -1213 58 -1455 180 -709 729 -1289 1427 -1504 338 -105 735 -121 1093 -46 274 57 568 191 808 369 382 283 672 712 787 1163 62 244 58 164 62 1406 3 1042 2 1141 -13 1173 -24 51 -67 77 -135 82 -68 5 -119 -16 -152 -62 l-22 -31 -6 -1130 -5 -1130 -27 -120 c-61 -276 -164 -504 -324 -716 -267 -355 -641 -592 -1082 -687 -116 -24 -144 -26 -356 -26 -212 0 -240 2 -356 26 -359 77 -666 243 -917 496 -249 251 -409 547 -489 907 l-27 120 -3 1134 c-4 1105 -4 1135 -23 1161 -40 57 -148 78 -218 43z"/>
      <path d="M40315 5689 c-124 -17 -243 -43 -351 -75 -615 -184 -1127 -656 -1363 -1257 -37 -93 -38 -104 -8 -113 12 -4 54 -21 92 -39 39 -18 135 -60 215 -93 543 -225 3247 -1365 3254 -1372 5 -5 -9 -38 -33 -80 -115 -193 -315 -410 -501 -543 -109 -77 -333 -192 -464 -237 -49 -17 -146 -43 -215 -57 -116 -25 -144 -27 -356 -27 -212 0 -240 2 -356 27 -69 14 -166 40 -215 57 -130 45 -355 160 -464 237 -122 87 -336 301 -423 423 -85 120 -193 334 -237 469 -26 79 -43 114 -70 142 -74 77 -185 71 -249 -14 -8 -9 -20 -43 -27 -73 -12 -53 -11 -62 13 -138 203 -644 739 -1174 1390 -1375 338 -105 735 -121 1093 -46 602 126 1153 553 1434 1111 56 112 116 255 116 277 0 7 -66 40 -147 74 -1005 419 -3420 1436 -3427 1443 -12 12 56 125 149 248 90 120 260 285 385 375 109 77 333 192 464 237 49 17 146 43 215 57 116 25 144 27 356 27 212 0 240 -2 356 -27 168 -35 276 -74 444 -157 186 -93 303 -178 460 -335 178 -177 298 -353 386 -565 57 -136 68 -158 99 -184 80 -67 202 -49 246 36 32 61 27 121 -16 232 -234 597 -738 1067 -1347 1255 -216 67 -388 91 -643 90 -107 -1 -222 -5 -255 -10z"/>
      <path d="M23105 5654 c-517 -90 -945 -465 -1103 -964 -64 -203 -62 -144 -62 -1663 0 -1526 -5 -1421 64 -1470 45 -32 157 -32 202 0 69 49 64 -54 64 1451 0 1458 -1 1434 50 1592 83 255 273 485 510 618 214 120 495 162 741 112 428 -87 762 -421 849 -849 20 -97 20 -132 20 -1466 0 -1241 2 -1370 16 -1401 24 -51 68 -77 135 -82 68 -5 119 16 152 62 l22 31 5 1410 c6 1402 6 1410 27 1490 52 193 139 348 276 491 143 150 303 246 504 302 90 24 113 27 273 27 160 0 183 -3 273 -27 201 -56 361 -152 504 -302 149 -155 241 -329 282 -533 21 -99 21 -125 21 -1468 0 -1513 -5 -1409 64 -1458 45 -32 157 -32 202 0 69 49 64 -56 64 1470 0 1519 2 1460 -62 1663 -138 436 -482 780 -918 918 -141 44 -262 62 -430 62 -88 0 -184 -6 -241 -16 -382 -65 -730 -292 -937 -611 -26 -39 -53 -79 -59 -90 -15 -21 -6 -31 -85 90 -207 319 -555 546 -937 611 -117 20 -373 20 -486 0z"/>
   </g>
</svg>